<?xml version="1.0" standalone="no"?>
<!DOCTYPE svg PUBLIC "-//W3C//DTD SVG 20010904//EN"
        "http://www.w3.org/TR/2001/REC-SVG-20010904/DTD/svg10.dtd">
<svg version="1.0" xmlns="http://www.w3.org/2000/svg"
     width="21px" height="10px" viewBox="0 0 518.000000 105.000000"
     preserveAspectRatio="xMidYMid meet">

    <g transform="translate(0.000000,105.000000) scale(0.100000,-0.100000)"
       fill="#fff" stroke="none">
        <path d="M4635 1007 c-72 -24 -120 -54 -167 -105 -89 -95 -121 -191 -121 -367
-1 -185 39 -303 131 -393 116 -112 311 -142 459 -71 64 31 143 111 177 180 55
114 69 315 31 458 -34 129 -113 228 -223 279 -47 21 -74 27 -152 29 -59 2
-110 -2 -135 -10z m226 -181 c29 -19 49 -44 67 -84 26 -54 27 -65 27 -217 0
-155 -1 -162 -28 -217 -41 -83 -73 -103 -169 -103 -85 0 -114 14 -156 75 -42
62 -54 129 -50 273 4 143 23 210 73 257 59 55 165 63 236 16z"/>
        <path d="M2795 997 c-200 -53 -297 -208 -298 -477 0 -186 33 -293 120 -390 67
-75 135 -104 255 -108 179 -8 303 53 365 178 18 36 36 84 39 108 l7 42 -102 0
c-98 0 -101 -1 -101 -22 0 -13 -9 -41 -19 -64 -27 -59 -89 -88 -176 -82 -139
9 -185 93 -185 339 0 236 54 322 205 321 101 -1 157 -44 171 -134 l7 -38 100
0 100 0 -7 43 c-11 68 -66 166 -117 209 -25 21 -71 47 -103 59 -73 25 -195 33
-261 16z"/>
        <path d="M4000 810 l0 -200 -195 0 -195 0 0 195 0 195 -100 0 -100 0 0 -363
c0 -200 3 -419 7 -486 l6 -122 96 3 96 3 -3 208 -2 207 195 0 195 0 0 -205 0
-205 100 0 100 0 0 485 0 485 -100 0 -100 0 0 -200z"/>
        <path d="M1759 986 c-2 -2 -3 -221 -1 -485 l2 -481 325 0 325 0 0 84 0 84
-225 -6 -225 -5 0 131 0 132 190 0 190 0 0 80 0 80 -190 0 -190 0 0 115 0 115
220 0 220 0 0 80 0 80 -318 0 c-175 0 -321 -2 -323 -4z"/>
        <path d="M20 855 l0 -125 703 2 702 3 3 123 3 122 -706 0 -705 0 0 -125z"/>
        <path d="M20 505 l0 -135 695 0 695 0 0 135 0 135 -695 0 -695 0 0 -135z"/>
        <path d="M30 145 l0 -125 375 0 375 0 0 125 0 125 -375 0 -375 0 0 -125z"/>
    </g>
</svg>
